<svg width="24" height="16" viewBox="0 0 24 16" fill="none" xmlns="http://www.w3.org/2000/svg">
<path d="M14.6667 12.6665C14.5109 12.6669 14.3599 12.6126 14.24 12.5132C14.1036 12.4002 14.0179 12.2375 14.0016 12.0612C13.9854 11.8848 14.0399 11.7093 14.1533 11.5732L17.14 7.99988L14.26 4.41988C14.1481 4.28215 14.0958 4.10552 14.1146 3.92909C14.1333 3.75267 14.2217 3.591 14.36 3.47988C14.4994 3.35719 14.6837 3.29823 14.8685 3.31721C15.0533 3.3362 15.2217 3.4314 15.3333 3.57988L18.5533 7.57988C18.7555 7.82588 18.7555 8.18055 18.5533 8.42655L15.22 12.4265C15.0843 12.5902 14.8788 12.6793 14.6667 12.6665Z" fill="#00AB55"/>
</svg>
