<svg width="16" height="16" viewBox="0 0 16 16" fill="none" xmlns="http://www.w3.org/2000/svg">
<path opacity="0.32" fill-rule="evenodd" clip-rule="evenodd" d="M1.41608 5.33333H14.5839C14.6311 6.13405 14.6667 7.21775 14.6667 8.66666C14.6667 10.9895 14.5754 12.3737 14.4908 13.1581C14.4281 13.7392 14.0345 14.1873 13.4602 14.2961C12.5663 14.4655 10.8952 14.6667 8.00001 14.6667C5.10484 14.6667 3.43371 14.4655 2.53979 14.2961C1.96552 14.1873 1.57191 13.7392 1.5092 13.1581C1.42456 12.3737 1.33334 10.9895 1.33334 8.66666C1.33334 7.21775 1.36883 6.13405 1.41608 5.33333ZM4.33334 8.45433C4.33334 8.0537 4.62211 7.73876 5.02248 7.72453C5.54241 7.706 6.44461 7.68496 8.00001 7.67126C9.67128 7.6565 10.5884 7.67976 11.0875 7.7066C11.4369 7.7254 11.6667 7.9964 11.6667 8.3464V8.60713C11.6667 8.9817 11.4104 9.27286 11.0362 9.2893C10.5265 9.31163 9.61568 9.33333 8.00001 9.33333C6.38434 9.33333 5.47351 9.31163 4.96378 9.2893C4.58958 9.27286 4.33334 8.9817 4.33334 8.60713V8.45433ZM4.33334 11.3927C4.33334 11.0184 4.58961 10.7195 4.96344 10.7002C5.31518 10.682 5.85301 10.6667 6.66668 10.6667C7.48034 10.6667 8.01818 10.682 8.36991 10.7002C8.74374 10.7195 9.00001 11.0184 9.00001 11.3927V11.6074C9.00001 11.9817 8.74374 12.2805 8.36991 12.2999C8.01818 12.318 7.48034 12.3334 6.66668 12.3334C5.85301 12.3334 5.31518 12.318 4.96344 12.2999C4.58961 12.2805 4.33334 11.9817 4.33334 11.6074V11.3927Z" fill="#637381"/>
<path d="M11.9434 1.35417C12.1517 1.37135 12.2949 1.52399 12.3091 1.73259C12.3221 1.92424 12.3333 2.21945 12.3333 2.66667C12.3333 2.73851 12.333 2.80643 12.3325 2.87063C12.7999 2.92422 13.1708 2.98238 13.4602 3.03721C14.0344 3.14601 14.428 3.5941 14.4907 4.17524C14.5226 4.47034 14.5554 4.85037 14.5839 5.33334H1.41602C1.44451 4.85037 1.47729 4.47034 1.50914 4.17524C1.57184 3.5941 1.96545 3.14602 2.53972 3.03721C2.82913 2.98237 3.2 2.92421 3.6675 2.87061C3.66697 2.80642 3.66667 2.73851 3.66667 2.66667C3.66667 2.21945 3.67793 1.92424 3.69093 1.73259C3.70507 1.52399 3.84827 1.37135 4.05663 1.35417C4.19843 1.34248 4.39587 1.33334 4.66667 1.33334C4.93747 1.33334 5.1349 1.34248 5.2767 1.35417C5.48507 1.37135 5.62827 1.52399 5.6424 1.73259C5.6554 1.92424 5.66667 2.21945 5.66667 2.66667C5.66667 2.6836 5.66667 2.70031 5.66663 2.71681C6.33763 2.68563 7.1111 2.66667 7.99993 2.66667C8.88883 2.66667 9.66233 2.68563 10.3334 2.71682L10.3333 2.66667C10.3333 2.21945 10.3446 1.92424 10.3576 1.73259C10.3717 1.52399 10.5149 1.37135 10.7233 1.35417C10.8651 1.34248 11.0625 1.33334 11.3333 1.33334C11.6041 1.33334 11.8016 1.34248 11.9434 1.35417Z" fill="#637381"/>
<path fill-rule="evenodd" clip-rule="evenodd" d="M5.02247 7.72453C4.6221 7.73876 4.33333 8.0537 4.33333 8.45433V8.60713C4.33333 8.9817 4.58957 9.27286 4.96377 9.2893C5.4735 9.31163 6.38433 9.33333 8 9.33333C9.61567 9.33333 10.5265 9.31163 11.0362 9.2893C11.4104 9.27286 11.6667 8.9817 11.6667 8.60713V8.3464C11.6667 7.9964 11.4369 7.7254 11.0875 7.7066C10.5884 7.67976 9.67127 7.6565 8 7.67126C6.4446 7.68496 5.5424 7.706 5.02247 7.72453ZM4.96343 10.7002C4.5896 10.7195 4.33333 11.0184 4.33333 11.3927V11.6074C4.33333 11.9817 4.5896 12.2805 4.96343 12.2999C5.31517 12.318 5.853 12.3334 6.66667 12.3334C7.48033 12.3334 8.01817 12.318 8.3699 12.2999C8.74373 12.2805 9 11.9817 9 11.6074V11.3927C9 11.0184 8.74373 10.7195 8.3699 10.7002C8.01817 10.682 7.48033 10.6667 6.66667 10.6667C5.853 10.6667 5.31517 10.682 4.96343 10.7002Z" fill="#637381"/>
</svg>
