<svg width="21" height="14" viewBox="0 0 21 14" fill="none" xmlns="http://www.w3.org/2000/svg">
<path fill-rule="evenodd" clip-rule="evenodd" d="M4.9524 0H1.92859C1.37423 0 0.920654 0.45 0.920654 1V13C0.920654 13.55 1.37423 14 1.92859 14H4.9524C5.50677 14 5.96034 13.55 5.96034 13V1C5.96034 0.45 5.50677 0 4.9524 0ZM19.0635 0H16.0397C15.4853 0 15.0318 0.45 15.0318 1V13C15.0318 13.55 15.4853 14 16.0397 14H19.0635C19.6179 14 20.0715 13.55 20.0715 13V1C20.0715 0.45 19.6179 0 19.0635 0ZM8.98415 0H12.008C12.5623 0 13.0159 0.45 13.0159 1V13C13.0159 13.55 12.5623 14 12.008 14H8.98415C8.42978 14 7.97621 13.55 7.97621 13V1C7.97621 0.45 8.42978 0 8.98415 0Z" fill="#637381"/>
</svg>
