<svg width="18" height="22" viewBox="0 0 18 22" fill="none" xmlns="http://www.w3.org/2000/svg">
<path d="M8.10252 22C7.98565 21.9999 7.86969 21.9796 7.75982 21.94C7.32368 21.7816 7.05313 21.348 7.10467 20.89L7.88078 13.8H1.94403C1.57088 13.8006 1.22795 13.5965 1.05268 13.2697C0.877409 12.9429 0.898477 12.5467 1.10744 12.24L9.06006 0.440004C9.31885 0.0600651 9.80493 -0.0965654 10.2393 0.0600043C10.6561 0.213515 10.9223 0.619801 10.8945 1.06L10.1184 8.2H16.0551C16.4283 8.19945 16.7712 8.40346 16.9465 8.7303C17.1218 9.05713 17.1007 9.45329 16.8917 9.76L8.93911 21.56C8.75136 21.8356 8.43779 22.0005 8.10252 22V22Z" fill="#006C9C"/>
</svg>
