<svg width="24" height="24" viewBox="0 0 24 24" fill="none" xmlns="http://www.w3.org/2000/svg">
<path d="M6.18179 12.2128C6.18179 11.5642 6.28952 10.9423 6.48179 10.359L3.11634 7.78906C2.46043 9.12081 2.09088 10.6214 2.09088 12.2128C2.09088 13.8028 2.45997 15.3025 3.11497 16.6333L6.47861 14.0583C6.28815 13.4778 6.18179 12.8582 6.18179 12.2128" fill="#212B36"/>
<path d="M12.0909 6.31204C13.5 6.31204 14.7727 6.81133 15.7727 7.62835L18.6818 4.72338C16.9091 3.18012 14.6363 2.22693 12.0909 2.22693C8.13906 2.22693 4.7427 4.4869 3.11633 7.78903L6.48179 10.359C7.25724 8.00508 9.4677 6.31204 12.0909 6.31204" fill="#EB4335"/>
<path d="M12.0909 18.1135C9.4677 18.1135 7.25724 16.4205 6.48179 14.0665L3.11633 16.6361C4.7427 19.9386 8.13906 22.1986 12.0909 22.1986C14.53 22.1986 16.8586 21.3326 18.6063 19.7099L15.4118 17.2402C14.5104 17.808 13.3754 18.1135 12.0909 18.1135" fill="#34A853"/>
<path d="M21.6363 12.2128C21.6363 11.6227 21.5454 10.9873 21.4091 10.3972H12.0909V14.2554H17.4545C17.1863 15.5708 16.4563 16.5821 15.4118 17.2402L18.6063 19.7099C20.4422 18.006 21.6363 15.4677 21.6363 12.2128" fill="#4285F4"/>
</svg>
