<svg width="18" height="12" viewBox="0 0 18 12" fill="none" xmlns="http://www.w3.org/2000/svg">
<path d="M2 6C2 6.55228 1.55228 7 1 7C0.447715 7 0 6.55228 0 6C0 5.44772 0.447715 5 1 5C1.55228 5 2 5.44772 2 6Z" fill="#919EAB"/>
<path d="M4 5.94C4 5.42085 4.42085 5 4.94 5H17.06C17.5791 5 18 5.42085 18 5.94V6.06C18 6.57915 17.5791 7 17.06 7H4.94C4.42085 7 4 6.57915 4 6.06V5.94Z" fill="#919EAB"/>
<path d="M0 10.94C0 10.4209 0.420852 10 0.94 10H17.06C17.5791 10 18 10.4209 18 10.94V11.06C18 11.5791 17.5791 12 17.06 12H0.940001C0.420853 12 0 11.5791 0 11.06V10.94Z" fill="#919EAB"/>
<path d="M0 0.94C0 0.420852 0.420852 0 0.94 0H17.06C17.5791 0 18 0.420852 18 0.94V1.06C18 1.57915 17.5791 2 17.06 2H0.940001C0.420853 2 0 1.57915 0 1.06V0.94Z" fill="#919EAB"/>
</svg>
