<svg width="26" height="26" viewBox="0 0 26 26" fill="none" xmlns="http://www.w3.org/2000/svg">
<path d="M11.1096 25C10.9936 24.9999 10.8786 24.9796 10.7696 24.94C10.3368 24.7816 10.0684 24.348 10.1196 23.89L10.8896 16.8H4.99956C4.62935 16.8006 4.28912 16.5965 4.11523 16.2697C3.94134 15.9429 3.96224 15.5467 4.16956 15.24L12.0596 3.44C12.3163 3.06007 12.7986 2.90343 13.2296 3.06C13.643 3.21351 13.9071 3.6198 13.8796 4.06L13.1096 11.2H18.9996C19.3698 11.1994 19.71 11.4035 19.8839 11.7303C20.0578 12.0571 20.0369 12.4533 19.8296 12.76L11.9396 24.56C11.7533 24.8356 11.4422 25.0005 11.1096 25Z" fill="#919EAB"/>
<circle cx="22" cy="4" r="4" fill="#FE0300"/>
</svg>
