<svg width="144" height="104" viewBox="0 0 144 104" fill="none" xmlns="http://www.w3.org/2000/svg">
<path opacity="0.48" d="M0 12C0 5.37258 5.37258 0 12 0H132C138.627 0 144 5.37258 144 12V24H0V12Z" fill="#919EAB"/>
<path opacity="0.24" d="M0 24V92C0 98.6274 5.37258 104 12 104H132C138.627 104 144 98.6274 144 92V24H0Z" fill="#919EAB"/>
<g opacity="0.48">
<path d="M12 47C12 43.6863 14.6863 41 18 41H42C45.3137 41 48 43.6863 48 47V55C48 58.3137 45.3137 61 42 61H18C14.6863 61 12 58.3137 12 55V47Z" fill="#919EAB"/>
<path d="M54 47C54 43.6863 56.6863 41 60 41H126C129.314 41 132 43.6863 132 47V55C132 58.3137 129.314 61 126 61H60C56.6863 61 54 58.3137 54 55V47Z" fill="#919EAB"/>
</g>
<g opacity="0.24">
<path d="M12 73C12 69.6863 14.6863 67 18 67H42C45.3137 67 48 69.6863 48 73V81C48 84.3137 45.3137 87 42 87H18C14.6863 87 12 84.3137 12 81V73Z" fill="#919EAB"/>
<path d="M54 73C54 69.6863 56.6863 67 60 67H126C129.314 67 132 69.6863 132 73V81C132 84.3137 129.314 87 126 87H60C56.6863 87 54 84.3137 54 81V73Z" fill="#919EAB"/>
</g>
</svg>
