<svg width="26" height="24" viewBox="0 0 26 24" fill="none" xmlns="http://www.w3.org/2000/svg">
<path opacity="0.32" d="M23.0794 10.5C23.0794 13.2058 23.0056 15.3259 22.9379 16.7018C22.8918 17.6385 21.9773 18.311 21.0405 18.1857C19.5043 17.9803 16.9099 17.75 13 17.75C9.09013 17.75 6.49576 17.9803 4.95956 18.1857C4.02274 18.311 3.10827 17.6385 3.06216 16.7018C2.99445 15.3259 2.92065 13.2058 2.92065 10.5C2.92065 7.79425 2.99445 5.67415 3.06216 4.29827C3.10827 3.36155 4.02274 2.68907 4.95956 2.81431C6.49576 3.01968 9.09013 3.25 13 3.25C16.9099 3.25 19.5043 3.01968 21.0405 2.81431C21.9773 2.68907 22.8918 3.36155 22.9379 4.29827C23.0056 5.67415 23.0794 7.79425 23.0794 10.5Z" fill="#B76E00"/>
<path d="M6.5401 18.0096C6.23054 18.7424 5.8898 19.6106 5.5984 20.5001C5.50952 20.7714 5.67501 21.0577 5.96119 21.0853C6.42918 21.1304 6.92831 21.1092 7.31082 21.0767C7.7272 21.0413 8.09308 20.805 8.31971 20.4567C8.91486 19.542 9.49118 18.5894 9.9547 17.8008C8.59605 17.8483 7.46456 17.9246 6.5401 18.0096Z" fill="url(#paint0_linear_536_2204)"/>
<path d="M16.046 17.8008C16.5095 18.5894 17.0858 19.542 17.6809 20.4567C17.9076 20.805 18.2734 21.0413 18.6898 21.0767C19.0723 21.1092 19.5715 21.1304 20.0394 21.0853C20.3257 21.0577 20.4911 20.7714 20.4023 20.5001C20.1109 19.6106 19.7701 18.7424 19.4606 18.0097C18.5361 17.9247 17.4046 17.8484 16.046 17.8008Z" fill="url(#paint1_linear_536_2204)"/>
<defs>
<linearGradient id="paint0_linear_536_2204" x1="-1.85164" y1="19.456" x2="-0.44584" y2="25.7632" gradientUnits="userSpaceOnUse">
<stop stop-color="#FFD666"/>
<stop offset="1" stop-color="#FFAB00"/>
</linearGradient>
<linearGradient id="paint1_linear_536_2204" x1="-1.85164" y1="19.456" x2="-0.44584" y2="25.7632" gradientUnits="userSpaceOnUse">
<stop stop-color="#FFD666"/>
<stop offset="1" stop-color="#FFAB00"/>
</linearGradient>
</defs>
</svg>
