<svg width="25" height="24" viewBox="0 0 25 24" fill="none" xmlns="http://www.w3.org/2000/svg">
<rect x="0.333313" width="24" height="24" rx="12" fill="#FF5630" fill-opacity="0.16"/>
<path d="M18.3333 8.66667C18.3396 8.62021 18.3396 8.57312 18.3333 8.52667C18.3275 8.48753 18.3163 8.44938 18.3 8.41333C18.2824 8.38075 18.2623 8.34955 18.24 8.32C18.2146 8.27784 18.1832 8.23965 18.1467 8.20667L18.0667 8.16C18.0282 8.1313 17.9854 8.10881 17.94 8.09333H17.8067C17.766 8.054 17.7186 8.02237 17.6667 8H14.3333C13.9651 8 13.6667 8.29848 13.6667 8.66667C13.6667 9.03486 13.9651 9.33333 14.3333 9.33333H16.22L13.5533 12.4733L10.6733 10.76C10.3915 10.5924 10.0297 10.6546 9.82 10.9067L6.48666 14.9067C6.37329 15.0427 6.31871 15.2183 6.33497 15.3946C6.35123 15.571 6.43699 15.7336 6.57333 15.8467C6.69327 15.9461 6.84423 16.0003 7 16C7.19828 16.0003 7.38642 15.9124 7.51333 15.76L10.48 12.2L13.3267 13.9067C13.6054 14.072 13.9626 14.0129 14.1733 13.7667L17 10.4667V12C17 12.3682 17.2985 12.6667 17.6667 12.6667C18.0349 12.6667 18.3333 12.3682 18.3333 12V8.66667Z" fill="#FF5630"/>
</svg>
