<svg width="25" height="24" viewBox="0 0 25 24" fill="none" xmlns="http://www.w3.org/2000/svg">
<rect x="0.666626" width="24" height="24" rx="12" fill="#919EAB" fill-opacity="0.16"/>
<path d="M18.6668 12C18.6668 11.6318 18.3683 11.3333 18.0001 11.3333C17.6319 11.3333 17.3335 11.6318 17.3335 12V13.5333L14.5068 10.2C14.2961 9.95374 13.9389 9.89467 13.6601 10.06L10.8135 11.8L7.8468 8.23999C7.69436 8.0566 7.45567 7.96845 7.22063 8.00877C6.98558 8.04908 6.7899 8.21172 6.70729 8.43543C6.62468 8.65914 6.6677 8.90993 6.82013 9.09333L10.1535 13.0933C10.3631 13.3454 10.725 13.4076 11.0068 13.24L13.8601 11.5267L16.5268 14.6667H14.6668C14.2986 14.6667 14.0001 14.9651 14.0001 15.3333C14.0001 15.7015 14.2986 16 14.6668 16H18.0001C18.0822 15.998 18.1633 15.9822 18.2401 15.9533L18.3335 15.9C18.3682 15.8825 18.4016 15.8624 18.4335 15.84C18.47 15.807 18.5014 15.7688 18.5268 15.7267C18.5491 15.6971 18.5692 15.6659 18.5868 15.6333C18.6031 15.5973 18.6143 15.5591 18.6201 15.52C18.6472 15.4612 18.663 15.3979 18.6668 15.3333V12Z" fill="#454F5B"/>
</svg>
